<?xml version="1.0" standalone="no"?>
<!DOCTYPE svg PUBLIC "-//W3C//DTD SVG 20010904//EN"
"http://www.w3.org/TR/2001/REC-SVG-20010904/DTD/svg10.dtd">
<svg version="1.0" xmlns="http://www.w3.org/2000/svg"
width="658.000000pt" height="582.000000pt" viewBox="0 0 658.000000 582.000000"
preserveAspectRatio="xMidYMid meet">

<g transform="translate(0.000000,582.000000) scale(0.100000,-0.100000)"
fill="#000000" stroke="none">
<path d="M2239 5517 c-37 -13 -86 -36 -109 -52 -51 -36 -126 -117 -150 -164
-67 -132 -66 -292 2 -425 29 -57 115 -144 176 -178 l52 -30 0 -678 0 -678 -53
-30 c-59 -33 -148 -124 -176 -181 -140 -274 27 -601 334 -654 210 -36 436 109
500 320 44 145 -5 342 -109 442 -41 40 -43 56 -21 159 37 176 93 255 207 290
74 23 221 39 438 47 235 9 395 23 463 41 159 40 289 136 362 267 47 85 68 153
89 287 9 58 19 115 21 127 4 14 26 33 65 54 85 45 152 115 197 205 33 68 38
86 41 169 10 226 -110 394 -327 459 -280 83 -571 -141 -571 -439 0 -140 82
-290 201 -367 l50 -32 -6 -61 c-9 -88 -41 -200 -71 -246 -48 -76 -117 -93
-464 -109 -306 -14 -447 -27 -540 -51 -75 -19 -186 -68 -247 -109 l-33 -22 -2
392 c-2 216 -1 395 2 400 3 4 21 15 40 25 87 44 175 146 208 239 72 207 -15
436 -210 550 -103 60 -243 73 -359 33z m206 -350 c35 -29 45 -96 21 -133 -21
-32 -72 -54 -108 -47 -44 8 -83 57 -83 104 0 83 107 131 170 76z m1736 -200
c25 -19 39 -53 39 -95 0 -53 -43 -92 -100 -92 -56 0 -91 33 -97 92 -5 42 -3
50 25 78 25 24 39 30 74 30 24 0 50 -6 59 -13z m-1730 -2006 c38 -38 39 -87 3
-130 -63 -76 -173 -34 -174 67 0 59 35 92 97 92 36 0 50 -6 74 -29z"/>
<path d="M1540 1761 c-68 -36 -94 -100 -60 -144 28 -35 72 -36 112 -2 l29 25
47 -24 c26 -13 61 -26 77 -30 66 -14 144 34 166 102 10 29 9 38 -8 61 -26 34
-77 40 -107 13 -35 -32 -41 -32 -91 -7 -58 30 -117 32 -165 6z"/>
<path d="M229 1741 c-36 -36 -37 -73 -4 -106 52 -53 135 -18 135 57 0 28 -7
42 -26 57 -37 29 -70 26 -105 -8z"/>
<path d="M3467 1754 c-15 -8 -32 -26 -37 -40 -6 -15 -10 -201 -10 -440 l0
-415 24 -24 c32 -32 69 -40 107 -25 58 25 59 29 59 474 0 435 -1 446 -51 472
-35 18 -57 17 -92 -2z"/>
<path d="M254 1530 c-12 -4 -31 -21 -43 -36 -20 -26 -21 -35 -21 -338 0 -193
-4 -326 -11 -350 -7 -25 -32 -61 -67 -98 -45 -48 -56 -65 -56 -93 0 -40 18
-63 62 -82 27 -11 37 -11 65 1 47 19 100 68 136 125 55 85 62 153 59 508 l-3
313 -25 24 c-29 29 -66 39 -96 26z"/>
<path d="M734 1512 c-64 -23 -143 -80 -177 -129 -53 -76 -69 -130 -70 -223 0
-76 3 -95 30 -151 38 -82 101 -144 183 -183 58 -27 75 -31 155 -31 77 0 98 4
147 27 156 73 254 257 217 411 -27 116 -103 213 -208 265 -73 35 -199 42 -277
14z m196 -184 c24 -13 58 -40 74 -61 27 -33 31 -46 31 -101 0 -52 -5 -70 -28
-104 -77 -117 -256 -107 -319 19 -25 48 -23 125 5 174 16 29 37 48 76 68 66
33 103 34 161 5z"/>
<path d="M1552 1509 c-76 -30 -162 -113 -197 -191 -75 -167 -20 -363 128 -461
107 -71 241 -84 351 -34 l51 23 35 -24 c43 -29 84 -24 118 14 22 25 22 28 22
328 0 289 -1 305 -20 329 -35 44 -103 44 -136 -1 -9 -12 -17 -11 -60 9 -70 34
-217 38 -292 8z m239 -194 c89 -58 107 -197 36 -273 -132 -142 -377 -9 -317
172 39 120 178 170 281 101z"/>
<path d="M2424 1516 c-23 -7 -61 -27 -86 -44 -220 -151 -223 -466 -7 -615 191
-132 448 -60 548 152 23 49 26 69 26 156 0 93 -3 104 -32 160 -29 57 -89 122
-144 159 -67 43 -218 59 -305 32z m191 -185 c75 -34 125 -122 110 -194 -21
-101 -101 -163 -200 -155 -140 12 -213 155 -139 274 52 84 143 114 229 75z"/>
<path d="M3748 1501 l-33 -29 0 -219 c0 -208 1 -220 24 -271 34 -76 120 -153
199 -176 157 -48 313 26 385 181 21 45 22 62 22 266 l0 219 -33 29 c-38 34
-65 36 -108 10 -40 -24 -44 -49 -44 -259 0 -184 -9 -219 -62 -252 -44 -27
-107 -26 -142 1 -51 40 -56 63 -56 263 0 102 -4 196 -10 210 -10 27 -56 56
-89 56 -12 0 -35 -13 -53 -29z"/>
<path d="M4700 1517 c-146 -49 -247 -177 -258 -328 -12 -177 98 -334 273 -384
111 -33 264 0 330 71 53 57 18 154 -55 154 -17 0 -53 -11 -80 -25 -88 -45
-177 -30 -238 39 -38 44 -46 70 -40 141 6 66 39 114 101 144 60 29 104 27 172
-9 72 -38 99 -38 136 -1 92 92 -39 212 -229 210 -42 0 -93 -6 -112 -12z"/>
<path d="M5392 1509 c-71 -28 -165 -116 -200 -188 -23 -49 -27 -68 -27 -156 0
-88 3 -107 27 -157 34 -74 107 -146 183 -184 53 -26 71 -29 150 -29 77 0 98 4
148 27 l57 27 25 -25 c34 -34 79 -32 116 5 l29 29 0 302 c0 188 -4 309 -10
321 -12 22 -60 49 -88 49 -11 0 -32 -10 -47 -22 l-27 -21 -67 21 c-88 29 -196
29 -269 1z m201 -173 c80 -29 122 -97 115 -187 -12 -164 -208 -228 -318 -103
-16 19 -34 52 -40 74 -21 79 26 176 104 211 48 22 87 23 139 5z"/>
<path d="M6132 1507 c-94 -49 -150 -134 -138 -211 15 -89 76 -157 175 -195 69
-26 89 -45 83 -77 -7 -38 -42 -50 -103 -36 -72 17 -103 15 -133 -9 -20 -16
-26 -29 -26 -60 0 -54 13 -75 63 -101 35 -19 58 -23 133 -23 83 0 94 2 139 30
76 47 109 101 113 186 8 132 -49 211 -180 250 -69 20 -94 43 -82 74 11 29 41
36 122 29 77 -6 79 -6 100 21 12 15 22 35 22 45 0 27 -38 69 -77 85 -54 23
-159 19 -211 -8z"/>
<path d="M1760 492 c0 -85 3 -101 20 -120 19 -21 70 -31 70 -14 0 4 -15 14
-33 22 -30 14 -32 18 -32 70 0 53 1 55 30 60 39 7 39 24 -1 28 -27 3 -30 6
-26 28 3 17 0 24 -12 24 -14 0 -16 -14 -16 -98z"/>
<path d="M4730 554 c0 -31 -3 -35 -17 -29 -46 20 -79 17 -111 -10 -27 -23 -32
-34 -32 -71 0 -67 51 -106 118 -89 15 3 35 7 44 8 21 2 29 44 26 150 -2 55 -6
77 -15 77 -8 0 -13 -13 -13 -36z m-22 -60 c33 -23 30 -76 -5 -104 -32 -25 -69
-20 -95 12 -25 28 -22 55 7 83 28 29 61 32 93 9z"/>
<path d="M410 533 c-63 -23 -81 -105 -35 -156 20 -20 35 -27 64 -27 90 0 127
103 58 163 -30 26 -55 32 -87 20z m77 -45 c28 -26 29 -58 5 -89 -26 -31 -78
-31 -104 0 -23 30 -23 52 3 85 25 32 64 34 96 4z"/>
<path d="M707 533 l-28 -4 3 -81 c2 -54 7 -83 16 -86 9 -3 12 13 12 56 0 64
15 92 49 92 36 0 52 -24 58 -88 8 -82 23 -80 23 3 0 57 -3 69 -25 90 -24 25
-43 28 -108 18z"/>
<path d="M1019 512 c-66 -59 -23 -162 67 -162 25 0 47 6 54 15 19 23 6 29 -34
15 -39 -13 -68 -3 -85 29 -14 26 -5 31 49 24 100 -12 129 22 69 78 -40 37 -79
38 -120 1z m101 -22 c30 -30 16 -41 -43 -34 -29 4 -54 8 -56 10 -2 2 4 13 14
24 23 26 59 26 85 0z"/>
<path d="M1525 516 c-20 -31 -8 -59 36 -81 40 -21 35 -48 -9 -55 -45 -7 -45
-24 0 -28 29 -3 40 2 52 20 21 32 10 64 -31 88 -40 23 -39 43 3 50 39 7 37 24
-3 28 -25 2 -35 -2 -48 -22z"/>
<path d="M2009 512 c-42 -37 -43 -91 -3 -133 32 -34 92 -40 119 -13 22 23 11
29 -25 14 -34 -14 -84 0 -94 27 -11 27 3 32 75 28 80 -5 90 4 64 55 -28 55
-88 65 -136 22z m101 -20 c13 -11 20 -24 16 -30 -8 -13 -83 -16 -111 -6 -14 6
-13 9 6 30 27 29 59 31 89 6z"/>
<path d="M2342 533 l-33 -4 2 -115 c0 -63 5 -114 10 -114 5 0 9 16 9 35 0 34
20 49 35 25 3 -5 22 -10 41 -10 26 0 44 8 66 30 27 27 30 36 25 72 -3 22 -14
50 -25 60 -20 20 -73 29 -130 21z m113 -48 c27 -26 31 -46 15 -75 -13 -25 -65
-41 -94 -30 -30 11 -37 22 -38 62 -2 62 72 89 117 43z"/>
<path d="M2901 527 c-27 -16 -50 -53 -51 -80 -1 -75 97 -124 151 -76 l24 21
-25 -7 c-61 -17 -76 -16 -100 3 -16 13 -21 24 -16 37 5 15 14 17 60 11 66 -7
86 -1 86 29 0 55 -77 91 -129 62z m89 -37 c12 -12 18 -25 15 -30 -7 -11 -108
-14 -118 -3 -12 11 35 53 60 53 13 0 32 -9 43 -20z"/>
<path d="M3534 530 c-32 -13 -54 -50 -54 -91 0 -71 100 -119 145 -69 16 17 16
20 2 20 -9 0 -19 -4 -22 -10 -12 -19 -56 -10 -82 16 -24 24 -25 27 -9 36 9 5
45 8 79 6 58 -3 62 -2 65 20 2 14 -7 33 -27 52 -30 30 -58 36 -97 20z m80 -39
c10 -11 15 -25 11 -30 -7 -12 -107 -15 -118 -4 -4 3 3 17 15 30 26 28 69 30
92 4z"/>
<path d="M3830 533 c-24 -9 -25 -16 -22 -97 4 -88 22 -94 22 -7 0 61 11 81 46
81 28 0 40 16 18 24 -19 7 -43 7 -64 -1z"/>
<path d="M4056 531 c-3 -5 10 -42 29 -82 19 -41 35 -82 35 -92 0 -10 -15 -27
-35 -38 -19 -12 -35 -25 -35 -30 0 -17 37 -9 57 14 23 24 103 191 103 213 0
27 -21 13 -36 -23 -32 -79 -39 -93 -46 -93 -5 0 -8 11 -8 24 0 14 -4 27 -9 31
-5 3 -12 18 -16 34 -7 33 -30 57 -39 42z"/>
<path d="M4958 525 c-57 -32 -65 -99 -18 -147 29 -28 35 -30 78 -24 26 4 55 7
65 7 15 0 17 11 17 84 0 73 -2 84 -17 84 -10 0 -36 2 -58 5 -27 4 -49 1 -67
-9z m90 -31 c22 -15 30 -66 14 -90 -17 -26 -53 -36 -83 -23 -53 21 -63 66 -24
104 28 29 61 32 93 9z"/>
<path d="M5398 526 c-9 -8 -24 -38 -33 -66 -9 -27 -20 -52 -24 -54 -4 -3 -18
24 -30 59 -14 38 -29 65 -37 65 -18 0 -18 -20 -1 -45 8 -11 24 -47 37 -79 l24
-59 -23 -18 c-13 -11 -29 -19 -36 -19 -7 0 -15 -7 -19 -15 -9 -23 29 -18 58 8
14 12 44 66 66 119 42 99 48 135 18 104z"/>
<path d="M3181 518 c1 -26 64 -143 77 -143 12 0 85 145 77 153 -12 12 -33 -11
-44 -49 -13 -44 -28 -69 -40 -69 -3 0 -15 27 -25 60 -11 34 -25 60 -33 60 -7
0 -13 -6 -12 -12z"/>
</g>
</svg>
